<mxfile host="app.diagrams.net" modified="2022-01-18T04:50:19.389Z" agent="5.0 (Windows NT 10.0; Win64; x64) AppleWebKit/537.36 (KHTML, like Gecko) Chrome/97.0.4692.71 Safari/537.36" etag="yS9nfKQ0Hqufrn4bb0OU" version="16.2.7" type="github">
  <diagram id="WAnN2iNz0bNFXVq9lcdW" name="Page-1">
    <mxGraphModel dx="866" dy="522" grid="1" gridSize="10" guides="1" tooltips="1" connect="1" arrows="1" fold="1" page="1" pageScale="1" pageWidth="827" pageHeight="1169" math="0" shadow="0">
      <root>
        <mxCell id="0" />
        <mxCell id="1" parent="0" />
      </root>
    </mxGraphModel>
  </diagram>
</mxfile>
